<?xml version="1.0" standalone="no"?>
<!DOCTYPE svg PUBLIC "-//W3C//DTD SVG 20010904//EN"
 "http://www.w3.org/TR/2001/REC-SVG-20010904/DTD/svg10.dtd">
<svg version="1.0" xmlns="http://www.w3.org/2000/svg"
 width="512.000000pt" height="512.000000pt" viewBox="0 0 512.000000 512.000000"
 preserveAspectRatio="xMidYMid meet">

<g transform="translate(0.000000,512.000000) scale(0.100000,-0.100000)"
fill="#000000" stroke="none">
<path d="M2400 5114 c-474 -41 -886 -180 -1250 -422 -630 -419 -1026 -1061
-1131 -1832 -17 -122 -17 -478 0 -600 40 -294 125 -579 246 -825 384 -781
1111 -1297 1995 -1416 122 -16 478 -16 600 0 408 55 788 195 1110 409 630 419
1028 1063 1131 1832 16 122 16 478 0 600 -40 293 -124 579 -245 824 -380 772
-1098 1288 -1960 1411 -101 15 -411 26 -496 19z m399 -769 c902 -128 1561
-881 1561 -1785 0 -858 -599 -1589 -1444 -1766 -87 -18 -167 -27 -286 -31
-246 -9 -413 15 -640 90 -403 133 -752 413 -975 782 -269 445 -329 1012 -160
1506 158 458 498 841 930 1045 168 79 373 140 555 163 107 14 348 12 459 -4z"/>
<path d="M1236 2808 c-22 -6 -55 -27 -77 -49 -62 -62 -64 -143 -5 -203 33 -32
60 -44 196 -87 64 -21 76 -28 85 -53 8 -25 6 -31 -18 -52 -50 -43 -126 -22
-148 41 l-13 35 -81 -6 c-44 -4 -81 -8 -82 -9 -10 -7 32 -106 54 -127 60 -57
185 -81 298 -58 51 10 67 19 107 60 54 56 69 111 48 177 -23 71 -64 97 -234
145 -91 26 -110 46 -81 78 35 38 135 15 135 -31 0 -17 9 -19 85 -19 92 0 95 2
74 57 -15 40 -48 73 -94 94 -45 21 -181 25 -249 7z"/>
<path d="M1670 2740 l0 -70 90 0 90 0 0 -215 0 -215 85 0 85 0 0 215 0 215 90
0 90 0 0 70 0 70 -265 0 -265 0 0 -70z"/>
<path d="M2302 2588 c-46 -123 -94 -251 -107 -285 l-24 -63 93 0 94 0 9 48 8
47 105 0 104 0 15 -47 15 -48 91 0 92 0 -106 283 -107 282 -100 3 -99 2 -83
-222z m213 -18 c14 -46 25 -89 25 -97 0 -9 -17 -13 -60 -13 -43 0 -58 3 -55
13 2 6 16 52 30 100 15 49 29 87 31 84 2 -2 15 -41 29 -87z"/>
<path d="M2860 2526 l0 -286 90 0 90 0 0 115 0 115 25 0 c36 0 63 -33 115
-139 l44 -91 98 0 98 0 -10 24 c-20 53 -73 152 -94 174 -11 13 -34 31 -51 40
l-30 15 33 11 c64 22 112 89 112 157 0 38 -42 114 -73 131 -15 9 -87 14 -234
16 l-213 4 0 -286z m292 173 c27 -7 40 -17 44 -34 15 -58 -17 -85 -103 -85
l-53 0 0 58 c0 32 3 62 7 65 10 10 63 8 105 -4z"/>
<path d="M3440 2740 l0 -70 90 0 90 0 0 -215 0 -215 85 0 85 0 0 215 0 215 95
0 95 0 0 70 0 70 -270 0 -270 0 0 -70z"/>
</g>
</svg>
