<?xml version="1.0" standalone="no"?>
<!DOCTYPE svg PUBLIC "-//W3C//DTD SVG 20010904//EN"
 "http://www.w3.org/TR/2001/REC-SVG-20010904/DTD/svg10.dtd">
<svg version="1.0" xmlns="http://www.w3.org/2000/svg"
 width="512.000000pt" height="512.000000pt" viewBox="0 0 512.000000 512.000000"
 preserveAspectRatio="xMidYMid meet">

<g transform="translate(0.000000,512.000000) scale(0.100000,-0.100000)"
fill="#000000" stroke="none">
<path d="M882 4267 l-692 -692 0 -985 0 -985 693 -693 692 -692 985 0 985 0
693 693 692 692 0 985 0 985 -693 693 -692 692 -985 0 -985 0 -693 -693z
m3180 -174 l618 -618 0 -885 0 -885 -617 -617 -618 -618 -885 0 -885 0 -617
617 -618 618 0 885 0 885 617 617 618 618 885 0 885 0 617 -617z"/>
<path d="M1237 3912 l-547 -547 0 -775 0 -775 548 -548 547 -547 775 0 775 0
548 548 547 547 0 775 0 775 -548 548 -547 547 -775 0 -775 0 -548 -548z m275
-817 c112 -23 110 -20 84 -115 -19 -72 -23 -80 -41 -75 -139 40 -185 44 -240
21 -63 -27 -80 -90 -36 -131 10 -8 69 -38 131 -65 188 -82 233 -131 239 -261
4 -95 -18 -149 -85 -207 -103 -91 -329 -111 -506 -43 l-26 10 20 83 c12 46 21
84 22 85 1 0 35 -10 76 -24 61 -20 89 -24 156 -21 71 3 86 6 108 27 19 18 26
35 26 61 0 50 -32 81 -128 121 -205 85 -266 149 -265 281 2 193 212 307 465
253z m1463 4 c155 -29 271 -137 319 -298 21 -70 21 -227 1 -306 -58 -219 -257
-347 -490 -314 -223 31 -356 201 -356 454 0 159 42 266 140 359 103 96 238
132 386 105z m946 -28 c114 -44 174 -134 173 -261 -1 -128 -53 -207 -173 -263
-55 -26 -79 -31 -168 -35 l-103 -5 0 -158 0 -159 -100 0 -100 0 0 445 0 445
23 5 c49 11 99 13 242 10 126 -2 159 -5 206 -24z m-1501 -66 l0 -85 -125 0
-125 0 0 -365 0 -365 -100 0 -100 0 0 365 0 365 -125 0 -125 0 0 85 0 85 350
0 350 0 0 -85z"/>
<path d="M2785 2917 c-155 -88 -163 -445 -12 -545 83 -55 205 -34 260 46 103
148 75 413 -51 493 -59 38 -137 40 -197 6z"/>
<path d="M3650 2805 l0 -135 60 0 c115 0 180 50 180 139 0 92 -51 131 -169
131 l-71 0 0 -135z"/>
</g>
</svg>
